%TF.GenerationSoftware,KiCad,Pcbnew,(6.0.5-0)*%
%TF.CreationDate,2022-07-22T18:33:55-05:00*%
%TF.ProjectId,calebs_HPS_clock,63616c65-6273-45f4-9850-535f636c6f63,C*%
%TF.SameCoordinates,PX4c4b400PY8a48640*%
%TF.FileFunction,Soldermask,Top*%
%TF.FilePolarity,Negative*%
%FSLAX46Y46*%
G04 Gerber Fmt 4.6, Leading zero omitted, Abs format (unit mm)*
G04 Created by KiCad (PCBNEW (6.0.5-0)) date 2022-07-22 18:33:55*
%MOMM*%
%LPD*%
G01*
G04 APERTURE LIST*
G04 Aperture macros list*
%AMRoundRect*
0 Rectangle with rounded corners*
0 $1 Rounding radius*
0 $2 $3 $4 $5 $6 $7 $8 $9 X,Y pos of 4 corners*
0 Add a 4 corners polygon primitive as box body*
4,1,4,$2,$3,$4,$5,$6,$7,$8,$9,$2,$3,0*
0 Add four circle primitives for the rounded corners*
1,1,$1+$1,$2,$3*
1,1,$1+$1,$4,$5*
1,1,$1+$1,$6,$7*
1,1,$1+$1,$8,$9*
0 Add four rect primitives between the rounded corners*
20,1,$1+$1,$2,$3,$4,$5,0*
20,1,$1+$1,$4,$5,$6,$7,0*
20,1,$1+$1,$6,$7,$8,$9,0*
20,1,$1+$1,$8,$9,$2,$3,0*%
G04 Aperture macros list end*
%ADD10C,1.440000*%
%ADD11R,1.400000X1.400000*%
%ADD12C,1.400000*%
%ADD13C,3.200000*%
%ADD14R,1.400000X1.150000*%
%ADD15R,1.150000X1.400000*%
%ADD16R,1.700000X1.700000*%
%ADD17O,1.700000X1.700000*%
%ADD18R,1.400000X1.600000*%
%ADD19C,2.000000*%
%ADD20R,1.200000X2.200000*%
%ADD21R,5.800000X6.400000*%
%ADD22R,4.500000X2.000000*%
%ADD23R,1.600000X1.600000*%
%ADD24O,1.600000X1.600000*%
%ADD25RoundRect,0.243750X-0.243750X-0.456250X0.243750X-0.456250X0.243750X0.456250X-0.243750X0.456250X0*%
%ADD26R,1.000000X1.800000*%
%ADD27C,3.000000*%
%ADD28R,1.800000X2.600000*%
%ADD29O,1.800000X2.600000*%
%ADD30RoundRect,0.500000X-0.500000X1.750000X-0.500000X-1.750000X0.500000X-1.750000X0.500000X1.750000X0*%
%ADD31RoundRect,0.500000X-1.500000X-0.500000X1.500000X-0.500000X1.500000X0.500000X-1.500000X0.500000X0*%
%ADD32R,3.000000X3.000000*%
G04 APERTURE END LIST*
D10*
%TO.C,RV2*%
X59700000Y21810000D03*
X57160000Y24350000D03*
X54620000Y21810000D03*
%TD*%
D11*
%TO.C,DS2*%
X26680000Y30700000D03*
D12*
X29220000Y30700000D03*
X31760000Y30700000D03*
X34300000Y30700000D03*
X36840000Y30700000D03*
X39380000Y30700000D03*
X41920000Y30700000D03*
X41920000Y45940000D03*
X39380000Y45940000D03*
X36840000Y45940000D03*
X34300000Y45940000D03*
X31760000Y45940000D03*
X29220000Y45940000D03*
X26680000Y45940000D03*
%TD*%
D13*
%TO.C,H4*%
X135000000Y5000000D03*
%TD*%
D14*
%TO.C,R3*%
X95260000Y41280000D03*
X95260000Y42980000D03*
%TD*%
%TO.C,C5*%
X68590000Y45090000D03*
X68590000Y46790000D03*
%TD*%
D15*
%TO.C,R8*%
X95680000Y48480000D03*
X97380000Y48480000D03*
%TD*%
%TO.C,R9*%
X31340000Y7840000D03*
X29640000Y7840000D03*
%TD*%
D16*
%TO.C,J1*%
X110500000Y39590000D03*
D17*
X110500000Y37050000D03*
X110500000Y34510000D03*
X110500000Y31970000D03*
X110500000Y29430000D03*
X110500000Y26890000D03*
%TD*%
D15*
%TO.C,R2*%
X102880000Y30700000D03*
X104580000Y30700000D03*
%TD*%
%TO.C,C9*%
X13130000Y20540000D03*
X14830000Y20540000D03*
%TD*%
%TO.C,C10*%
X13130000Y16730000D03*
X14830000Y16730000D03*
%TD*%
D18*
%TO.C,SW1*%
X100630000Y12730000D03*
X100630000Y20730000D03*
X105130000Y12730000D03*
X105130000Y20730000D03*
%TD*%
D15*
%TO.C,C2*%
X82140000Y42130000D03*
X80440000Y42130000D03*
%TD*%
D14*
%TO.C,C1*%
X80020000Y27740000D03*
X80020000Y26040000D03*
%TD*%
D19*
%TO.C,TP8*%
X47000000Y15460000D03*
%TD*%
D20*
%TO.C,U2*%
X128540000Y18880000D03*
D21*
X130820000Y25180000D03*
D20*
X133100000Y18880000D03*
%TD*%
D22*
%TO.C,Y1*%
X73230000Y45940000D03*
X81730000Y45940000D03*
%TD*%
D19*
%TO.C,TP5*%
X6360000Y77690000D03*
%TD*%
D15*
%TO.C,R6*%
X86370000Y21810000D03*
X84670000Y21810000D03*
%TD*%
%TO.C,R5*%
X79170000Y21810000D03*
X80870000Y21810000D03*
%TD*%
D19*
%TO.C,U5*%
X124950000Y68800000D03*
X96050000Y68800000D03*
D16*
X113040000Y58750000D03*
D17*
X110500000Y58750000D03*
X107960000Y58750000D03*
%TD*%
D19*
%TO.C,TP2*%
X118120000Y28160000D03*
%TD*%
D23*
%TO.C,U1*%
X96520000Y38310000D03*
D24*
X93980000Y38310000D03*
X91440000Y38310000D03*
X88900000Y38310000D03*
X86360000Y38310000D03*
X83820000Y38310000D03*
X81280000Y38310000D03*
X78740000Y38310000D03*
X76200000Y38310000D03*
X73660000Y38310000D03*
X71120000Y38310000D03*
X68580000Y38310000D03*
X66040000Y38310000D03*
X63500000Y38310000D03*
X63500000Y30690000D03*
X66040000Y30690000D03*
X68580000Y30690000D03*
X71120000Y30690000D03*
X73660000Y30690000D03*
X76200000Y30690000D03*
X78740000Y30690000D03*
X81280000Y30690000D03*
X83820000Y30690000D03*
X86360000Y30690000D03*
X88900000Y30690000D03*
X91440000Y30690000D03*
X93980000Y30690000D03*
X96520000Y30690000D03*
%TD*%
D16*
%TO.C,J6*%
X91445000Y15445000D03*
D17*
X93985000Y15445000D03*
X91445000Y12905000D03*
X93985000Y12905000D03*
X91445000Y10365000D03*
X93985000Y10365000D03*
%TD*%
D23*
%TO.C,U3*%
X76220000Y9120000D03*
D24*
X78760000Y9120000D03*
X81300000Y9120000D03*
X83840000Y9120000D03*
X83840000Y16740000D03*
X81300000Y16740000D03*
X78760000Y16740000D03*
X76220000Y16740000D03*
%TD*%
D16*
%TO.C,J3*%
X49535000Y7840000D03*
D17*
X46995000Y7840000D03*
X44455000Y7840000D03*
X41915000Y7840000D03*
X39375000Y7840000D03*
%TD*%
D25*
%TO.C,D1*%
X93052500Y21810000D03*
X94927500Y21810000D03*
%TD*%
D16*
%TO.C,J5*%
X62240000Y7840000D03*
D17*
X59700000Y7840000D03*
X57160000Y7840000D03*
%TD*%
D15*
%TO.C,R7*%
X13130000Y24350000D03*
X14830000Y24350000D03*
%TD*%
D14*
%TO.C,C4*%
X86370000Y45090000D03*
X86370000Y46790000D03*
%TD*%
D13*
%TO.C,H2*%
X135000000Y85000000D03*
%TD*%
D19*
%TO.C,TP9*%
X7630000Y24350000D03*
%TD*%
D10*
%TO.C,RV1*%
X105420000Y51020000D03*
X102880000Y48480000D03*
X105420000Y45940000D03*
%TD*%
D14*
%TO.C,C11*%
X26680000Y7420000D03*
X26680000Y5720000D03*
%TD*%
D13*
%TO.C,H3*%
X5000000Y5000000D03*
%TD*%
D26*
%TO.C,Y2*%
X78730000Y5300000D03*
X76230000Y5300000D03*
%TD*%
D14*
%TO.C,R4*%
X92720000Y41280000D03*
X92720000Y42980000D03*
%TD*%
D13*
%TO.C,H1*%
X5000000Y85000000D03*
%TD*%
D14*
%TO.C,R10*%
X34300000Y9960000D03*
X34300000Y8260000D03*
%TD*%
D15*
%TO.C,C3*%
X104570000Y25620000D03*
X106270000Y25620000D03*
%TD*%
D23*
%TO.C,U4*%
X20325000Y19280000D03*
D24*
X22865000Y19280000D03*
X25405000Y19280000D03*
X27945000Y19280000D03*
X30485000Y19280000D03*
X33025000Y19280000D03*
X35565000Y19280000D03*
X38105000Y19280000D03*
X40645000Y19280000D03*
X43185000Y19280000D03*
X45725000Y19280000D03*
X48265000Y19280000D03*
X48265000Y26900000D03*
X45725000Y26900000D03*
X43185000Y26900000D03*
X40645000Y26900000D03*
X38105000Y26900000D03*
X35565000Y26900000D03*
X33025000Y26900000D03*
X30485000Y26900000D03*
X27945000Y26900000D03*
X25405000Y26900000D03*
X22865000Y26900000D03*
X20325000Y26900000D03*
%TD*%
D19*
%TO.C,TP3*%
X82560000Y4030000D03*
%TD*%
D15*
%TO.C,C6*%
X127860000Y15460000D03*
X126160000Y15460000D03*
%TD*%
D19*
%TO.C,TP6*%
X132090000Y63720000D03*
%TD*%
%TO.C,TP7*%
X67320000Y7840000D03*
%TD*%
D15*
%TO.C,C8*%
X73670000Y21810000D03*
X75370000Y21810000D03*
%TD*%
%TO.C,C7*%
X133780000Y15460000D03*
X135480000Y15460000D03*
%TD*%
%TO.C,R11*%
X97550000Y25620000D03*
X99250000Y25620000D03*
%TD*%
D27*
%TO.C,DS1*%
X88560000Y84157500D03*
X88559480Y53156800D03*
X13560900Y53156800D03*
X13560900Y84157500D03*
D28*
X19060000Y84157500D03*
D29*
X21600000Y84157500D03*
X24140000Y84157500D03*
X26680000Y84157500D03*
X29220000Y84157500D03*
X31760000Y84157500D03*
X34300000Y84157500D03*
X36840000Y84157500D03*
X39380000Y84157500D03*
X41920000Y84157500D03*
X44460000Y84157500D03*
X47000000Y84157500D03*
X49540000Y84157500D03*
X52080000Y84157500D03*
X54620000Y84157500D03*
X57160000Y84157500D03*
%TD*%
D19*
%TO.C,TP1*%
X63510000Y45940000D03*
%TD*%
D30*
%TO.C,J2*%
X113350000Y15460000D03*
D31*
X115650000Y20760000D03*
X119350000Y18260000D03*
%TD*%
D32*
%TO.C,BT1*%
X125739984Y33056314D03*
D27*
X125739984Y53546314D03*
%TD*%
M02*
