M48
; DRILL file {KiCad (6.0.5-0)} date Friday, July 22, 2022 at 06:34:29 PM
; FORMAT={-:-/ absolute / inch / decimal}
; #@! TF.CreationDate,2022-07-22T18:34:29-05:00
; #@! TF.GenerationSoftware,Kicad,Pcbnew,(6.0.5-0)
; #@! TF.FileFunction,MixedPlating,1,2
FMAT,2
INCH
; #@! TA.AperFunction,Plated,PTH,ViaDrill
T1C0.0160
; #@! TA.AperFunction,Plated,PTH,ComponentDrill
T2C0.0315
; #@! TA.AperFunction,Plated,PTH,ComponentDrill
T3C0.0354
; #@! TA.AperFunction,Plated,PTH,ComponentDrill
T4C0.0394
; #@! TA.AperFunction,Plated,PTH,ComponentDrill
T5C0.0472
; #@! TA.AperFunction,Plated,PTH,ComponentDrill
T6C0.0591
; #@! TA.AperFunction,Plated,PTH,ComponentDrill
T7C0.0984
; #@! TA.AperFunction,NonPlated,NPTH,ComponentDrill
T8C0.0787
; #@! TA.AperFunction,NonPlated,NPTH,ComponentDrill
T9C0.1260
%
G90
G05
T1
X0.6504Y0.8087
X0.6504Y0.6587
X0.8504Y1.2587
X0.9504Y1.3087
X1.0504Y0.1587
X1.3504Y1.7087
X1.4004Y2.0087
X1.7004Y1.9087
X1.8004Y1.9587
X1.8504Y1.8587
X1.9504Y1.6087
X2.2004Y2.6587
X2.4004Y2.7587
X2.5504Y0.5587
X2.6004Y0.8587
X2.6504Y2.1587
X2.6504Y0.7587
X2.7004Y1.9087
X2.7004Y0.5587
X2.7504Y2.9587
X2.7504Y2.8087
X2.7504Y0.1087
X2.8004Y0.7087
X2.8504Y0.8587
X2.9004Y0.5087
X3.1504Y0.9587
X3.3004Y2.9587
X3.4004Y1.9087
X3.4004Y0.3587
X3.4504Y0.4087
X3.5504Y3.0587
X3.6004Y3.1087
X3.6504Y3.2087
X3.6504Y1.9087
X3.8504Y0.8087
X3.8504Y0.5087
X3.9004Y0.9087
X4.9004Y0.3087
X4.9504Y0.5087
X5.3504Y0.9587
X5.4004Y0.6087
T2
X0.8002Y1.0591
X0.8002Y0.7591
X0.9002Y1.0591
X0.9002Y0.7591
X1.0002Y1.0591
X1.0002Y0.7591
X1.1002Y1.0591
X1.1002Y0.7591
X1.2002Y1.0591
X1.2002Y0.7591
X1.3002Y1.0591
X1.3002Y0.7591
X1.4002Y1.0591
X1.4002Y0.7591
X1.5002Y1.0591
X1.5002Y0.7591
X1.6002Y1.0591
X1.6002Y0.7591
X1.7002Y1.0591
X1.7002Y0.7591
X1.8002Y1.0591
X1.8002Y0.7591
X1.9002Y1.0591
X1.9002Y0.7591
X2.1504Y0.8587
X2.2504Y0.9587
X2.3504Y0.8587
X2.5Y1.5083
X2.5Y1.2083
X2.6Y1.5083
X2.6Y1.2083
X2.7Y1.5083
X2.7Y1.2083
X2.8Y1.5083
X2.8Y1.2083
X2.9Y1.5083
X2.9Y1.2083
X3.0Y1.5083
X3.0Y1.2083
X3.0008Y0.6591
X3.0008Y0.3591
X3.1Y1.5083
X3.1Y1.2083
X3.1008Y0.6591
X3.1008Y0.3591
X3.2Y1.5083
X3.2Y1.2083
X3.2008Y0.6591
X3.2008Y0.3591
X3.3Y1.5083
X3.3Y1.2083
X3.3008Y0.6591
X3.3008Y0.3591
X3.4Y1.5083
X3.4Y1.2083
X3.5Y1.5083
X3.5Y1.2083
X3.6Y1.5083
X3.6Y1.2083
X3.7Y1.5083
X3.7Y1.2083
X3.8Y1.5083
X3.8Y1.2083
X4.0504Y1.9087
X4.1504Y2.0087
X4.1504Y1.8087
T3
X1.0504Y1.8087
X1.0504Y1.2087
X1.1504Y1.8087
X1.1504Y1.2087
X1.2504Y1.8087
X1.2504Y1.2087
X1.3504Y1.8087
X1.3504Y1.2087
X1.4504Y1.8087
X1.4504Y1.2087
X1.5504Y1.8087
X1.5504Y1.2087
X1.6504Y1.8087
X1.6504Y1.2087
T4
X0.2504Y3.0587
X0.3004Y0.9587
X1.5502Y0.3087
X1.6502Y0.3087
X1.7502Y0.3087
X1.8502Y0.3087
X1.8504Y0.6087
X1.9502Y0.3087
X2.2504Y0.3087
X2.3504Y0.3087
X2.4504Y0.3087
X2.5004Y1.8087
X2.6504Y0.3087
X3.2504Y0.1587
X3.6002Y0.6081
X3.6002Y0.5081
X3.6002Y0.4081
X3.7002Y0.6081
X3.7002Y0.5081
X3.7002Y0.4081
X4.2504Y2.313
X4.3504Y2.313
X4.3504Y1.5587
X4.3504Y1.4587
X4.3504Y1.3587
X4.3504Y1.2587
X4.3504Y1.1587
X4.3504Y1.0587
X4.4504Y2.313
X4.6504Y1.1087
X5.2004Y2.5087
T5
X0.7504Y3.3133
X0.8504Y3.3133
X0.9504Y3.3133
X1.0504Y3.3133
X1.1504Y3.3133
X1.2504Y3.3133
X1.3504Y3.3133
X1.4504Y3.3133
X1.5504Y3.3133
X1.6504Y3.3133
X1.7504Y3.3133
X1.8504Y3.3133
X1.9504Y3.3133
X2.0504Y3.3133
X2.1504Y3.3133
X2.2504Y3.3133
T6
X4.9504Y2.1081
X4.9504Y1.3014
T7
X0.5339Y3.3133
X0.5339Y2.0928
X3.4866Y2.0928
X3.4866Y3.3133
T8
X3.7815Y2.7087
X4.9193Y2.7087
T9
X0.1969Y3.3465
X0.1969Y0.1969
X5.315Y3.3465
X5.315Y0.1969
T4
G00X4.4626Y0.6579
M15
G01X4.4626Y0.5594
M16
G05
G00X4.5138Y0.8173
M15
G01X4.5925Y0.8173
M16
G05
G00X4.6594Y0.7189
M15
G01X4.7382Y0.7189
M16
G05
T0
M30
