%TF.GenerationSoftware,KiCad,Pcbnew,(6.0.5-0)*%
%TF.CreationDate,2022-07-22T18:33:55-05:00*%
%TF.ProjectId,calebs_HPS_clock,63616c65-6273-45f4-9850-535f636c6f63,C*%
%TF.SameCoordinates,PX4c4b400PY8a48640*%
%TF.FileFunction,Paste,Top*%
%TF.FilePolarity,Positive*%
%FSLAX46Y46*%
G04 Gerber Fmt 4.6, Leading zero omitted, Abs format (unit mm)*
G04 Created by KiCad (PCBNEW (6.0.5-0)) date 2022-07-22 18:33:55*
%MOMM*%
%LPD*%
G01*
G04 APERTURE LIST*
G04 Aperture macros list*
%AMRoundRect*
0 Rectangle with rounded corners*
0 $1 Rounding radius*
0 $2 $3 $4 $5 $6 $7 $8 $9 X,Y pos of 4 corners*
0 Add a 4 corners polygon primitive as box body*
4,1,4,$2,$3,$4,$5,$6,$7,$8,$9,$2,$3,0*
0 Add four circle primitives for the rounded corners*
1,1,$1+$1,$2,$3*
1,1,$1+$1,$4,$5*
1,1,$1+$1,$6,$7*
1,1,$1+$1,$8,$9*
0 Add four rect primitives between the rounded corners*
20,1,$1+$1,$2,$3,$4,$5,0*
20,1,$1+$1,$4,$5,$6,$7,0*
20,1,$1+$1,$6,$7,$8,$9,0*
20,1,$1+$1,$8,$9,$2,$3,0*%
G04 Aperture macros list end*
%ADD10R,1.400000X1.150000*%
%ADD11R,1.150000X1.400000*%
%ADD12R,1.400000X1.600000*%
%ADD13R,2.750000X3.050000*%
%ADD14R,1.200000X2.200000*%
%ADD15R,4.500000X2.000000*%
%ADD16RoundRect,0.243750X-0.243750X-0.456250X0.243750X-0.456250X0.243750X0.456250X-0.243750X0.456250X0*%
%ADD17R,1.000000X1.800000*%
G04 APERTURE END LIST*
D10*
%TO.C,R3*%
X95260000Y41280000D03*
X95260000Y42980000D03*
%TD*%
%TO.C,C5*%
X68590000Y45090000D03*
X68590000Y46790000D03*
%TD*%
D11*
%TO.C,R8*%
X95680000Y48480000D03*
X97380000Y48480000D03*
%TD*%
%TO.C,R9*%
X31340000Y7840000D03*
X29640000Y7840000D03*
%TD*%
%TO.C,R2*%
X102880000Y30700000D03*
X104580000Y30700000D03*
%TD*%
%TO.C,C9*%
X13130000Y20540000D03*
X14830000Y20540000D03*
%TD*%
%TO.C,C10*%
X13130000Y16730000D03*
X14830000Y16730000D03*
%TD*%
D12*
%TO.C,SW1*%
X100630000Y12730000D03*
X100630000Y20730000D03*
X105130000Y12730000D03*
X105130000Y20730000D03*
%TD*%
D11*
%TO.C,C2*%
X82140000Y42130000D03*
X80440000Y42130000D03*
%TD*%
D10*
%TO.C,C1*%
X80020000Y27740000D03*
X80020000Y26040000D03*
%TD*%
D13*
%TO.C,U2*%
X132345000Y23505000D03*
X129295000Y26855000D03*
X132345000Y26855000D03*
X129295000Y23505000D03*
D14*
X128540000Y18880000D03*
X133100000Y18880000D03*
%TD*%
D15*
%TO.C,Y1*%
X73230000Y45940000D03*
X81730000Y45940000D03*
%TD*%
D11*
%TO.C,R6*%
X86370000Y21810000D03*
X84670000Y21810000D03*
%TD*%
%TO.C,R5*%
X79170000Y21810000D03*
X80870000Y21810000D03*
%TD*%
D16*
%TO.C,D1*%
X93052500Y21810000D03*
X94927500Y21810000D03*
%TD*%
D11*
%TO.C,R7*%
X13130000Y24350000D03*
X14830000Y24350000D03*
%TD*%
D10*
%TO.C,C4*%
X86370000Y45090000D03*
X86370000Y46790000D03*
%TD*%
%TO.C,C11*%
X26680000Y7420000D03*
X26680000Y5720000D03*
%TD*%
D17*
%TO.C,Y2*%
X78730000Y5300000D03*
X76230000Y5300000D03*
%TD*%
D10*
%TO.C,R4*%
X92720000Y41280000D03*
X92720000Y42980000D03*
%TD*%
%TO.C,R10*%
X34300000Y9960000D03*
X34300000Y8260000D03*
%TD*%
D11*
%TO.C,C3*%
X104570000Y25620000D03*
X106270000Y25620000D03*
%TD*%
%TO.C,C6*%
X127860000Y15460000D03*
X126160000Y15460000D03*
%TD*%
%TO.C,C8*%
X73670000Y21810000D03*
X75370000Y21810000D03*
%TD*%
%TO.C,C7*%
X133780000Y15460000D03*
X135480000Y15460000D03*
%TD*%
%TO.C,R11*%
X97550000Y25620000D03*
X99250000Y25620000D03*
%TD*%
M02*
