%TF.GenerationSoftware,KiCad,Pcbnew,(6.0.5-0)*%
%TF.CreationDate,2022-07-22T18:33:55-05:00*%
%TF.ProjectId,calebs_HPS_clock,63616c65-6273-45f4-9850-535f636c6f63,C*%
%TF.SameCoordinates,PX4c4b400PY8a48640*%
%TF.FileFunction,Legend,Top*%
%TF.FilePolarity,Positive*%
%FSLAX46Y46*%
G04 Gerber Fmt 4.6, Leading zero omitted, Abs format (unit mm)*
G04 Created by KiCad (PCBNEW (6.0.5-0)) date 2022-07-22 18:33:55*
%MOMM*%
%LPD*%
G01*
G04 APERTURE LIST*
G04 Aperture macros list*
%AMRoundRect*
0 Rectangle with rounded corners*
0 $1 Rounding radius*
0 $2 $3 $4 $5 $6 $7 $8 $9 X,Y pos of 4 corners*
0 Add a 4 corners polygon primitive as box body*
4,1,4,$2,$3,$4,$5,$6,$7,$8,$9,$2,$3,0*
0 Add four circle primitives for the rounded corners*
1,1,$1+$1,$2,$3*
1,1,$1+$1,$4,$5*
1,1,$1+$1,$6,$7*
1,1,$1+$1,$8,$9*
0 Add four rect primitives between the rounded corners*
20,1,$1+$1,$2,$3,$4,$5,0*
20,1,$1+$1,$4,$5,$6,$7,0*
20,1,$1+$1,$6,$7,$8,$9,0*
20,1,$1+$1,$8,$9,$2,$3,0*%
G04 Aperture macros list end*
%ADD10C,0.150000*%
%ADD11C,0.120000*%
%ADD12C,0.250000*%
%ADD13C,1.440000*%
%ADD14R,1.400000X1.400000*%
%ADD15C,1.400000*%
%ADD16C,3.200000*%
%ADD17R,1.400000X1.150000*%
%ADD18R,1.150000X1.400000*%
%ADD19R,1.700000X1.700000*%
%ADD20O,1.700000X1.700000*%
%ADD21R,1.400000X1.600000*%
%ADD22C,2.000000*%
%ADD23R,1.200000X2.200000*%
%ADD24R,5.800000X6.400000*%
%ADD25R,4.500000X2.000000*%
%ADD26R,1.600000X1.600000*%
%ADD27O,1.600000X1.600000*%
%ADD28RoundRect,0.243750X-0.243750X-0.456250X0.243750X-0.456250X0.243750X0.456250X-0.243750X0.456250X0*%
%ADD29R,1.000000X1.800000*%
%ADD30C,3.000000*%
%ADD31R,1.800000X2.600000*%
%ADD32O,1.800000X2.600000*%
%ADD33RoundRect,0.500000X-0.500000X1.750000X-0.500000X-1.750000X0.500000X-1.750000X0.500000X1.750000X0*%
%ADD34RoundRect,0.500000X-1.500000X-0.500000X1.500000X-0.500000X1.500000X0.500000X-1.500000X0.500000X0*%
%ADD35R,3.000000X3.000000*%
G04 APERTURE END LIST*
D10*
X123811428Y45457858D02*
X123763809Y45410239D01*
X123620952Y45362620D01*
X123525714Y45362620D01*
X123382857Y45410239D01*
X123287619Y45505477D01*
X123240000Y45600715D01*
X123192380Y45791191D01*
X123192380Y45934048D01*
X123240000Y46124524D01*
X123287619Y46219762D01*
X123382857Y46315000D01*
X123525714Y46362620D01*
X123620952Y46362620D01*
X123763809Y46315000D01*
X123811428Y46267381D01*
X124668571Y45362620D02*
X124668571Y45886429D01*
X124620952Y45981667D01*
X124525714Y46029286D01*
X124335238Y46029286D01*
X124240000Y45981667D01*
X124668571Y45410239D02*
X124573333Y45362620D01*
X124335238Y45362620D01*
X124240000Y45410239D01*
X124192380Y45505477D01*
X124192380Y45600715D01*
X124240000Y45695953D01*
X124335238Y45743572D01*
X124573333Y45743572D01*
X124668571Y45791191D01*
X125287619Y45362620D02*
X125192380Y45410239D01*
X125144761Y45505477D01*
X125144761Y46362620D01*
X126049523Y45410239D02*
X125954285Y45362620D01*
X125763809Y45362620D01*
X125668571Y45410239D01*
X125620952Y45505477D01*
X125620952Y45886429D01*
X125668571Y45981667D01*
X125763809Y46029286D01*
X125954285Y46029286D01*
X126049523Y45981667D01*
X126097142Y45886429D01*
X126097142Y45791191D01*
X125620952Y45695953D01*
X126525714Y45362620D02*
X126525714Y46362620D01*
X126525714Y45981667D02*
X126620952Y46029286D01*
X126811428Y46029286D01*
X126906666Y45981667D01*
X126954285Y45934048D01*
X127001904Y45838810D01*
X127001904Y45553096D01*
X126954285Y45457858D01*
X126906666Y45410239D01*
X126811428Y45362620D01*
X126620952Y45362620D01*
X126525714Y45410239D01*
X127478095Y46362620D02*
X127382857Y46172143D01*
X127859047Y45410239D02*
X127954285Y45362620D01*
X128144761Y45362620D01*
X128240000Y45410239D01*
X128287619Y45505477D01*
X128287619Y45553096D01*
X128240000Y45648334D01*
X128144761Y45695953D01*
X128001904Y45695953D01*
X127906666Y45743572D01*
X127859047Y45838810D01*
X127859047Y45886429D01*
X127906666Y45981667D01*
X128001904Y46029286D01*
X128144761Y46029286D01*
X128240000Y45981667D01*
X122287619Y43752620D02*
X122287619Y44752620D01*
X122763809Y44419286D02*
X122763809Y43752620D01*
X122763809Y44324048D02*
X122811428Y44371667D01*
X122906666Y44419286D01*
X123049523Y44419286D01*
X123144761Y44371667D01*
X123192380Y44276429D01*
X123192380Y43752620D01*
X124097142Y43800239D02*
X124001904Y43752620D01*
X123811428Y43752620D01*
X123716190Y43800239D01*
X123668571Y43847858D01*
X123620952Y43943096D01*
X123620952Y44228810D01*
X123668571Y44324048D01*
X123716190Y44371667D01*
X123811428Y44419286D01*
X124001904Y44419286D01*
X124097142Y44371667D01*
X124525714Y43752620D02*
X124525714Y44419286D01*
X124525714Y44228810D02*
X124573333Y44324048D01*
X124620952Y44371667D01*
X124716190Y44419286D01*
X124811428Y44419286D01*
X125525714Y43800239D02*
X125430476Y43752620D01*
X125240000Y43752620D01*
X125144761Y43800239D01*
X125097142Y43895477D01*
X125097142Y44276429D01*
X125144761Y44371667D01*
X125240000Y44419286D01*
X125430476Y44419286D01*
X125525714Y44371667D01*
X125573333Y44276429D01*
X125573333Y44181191D01*
X125097142Y44085953D01*
X126430476Y43752620D02*
X126430476Y44752620D01*
X126430476Y43800239D02*
X126335238Y43752620D01*
X126144761Y43752620D01*
X126049523Y43800239D01*
X126001904Y43847858D01*
X125954285Y43943096D01*
X125954285Y44228810D01*
X126001904Y44324048D01*
X126049523Y44371667D01*
X126144761Y44419286D01*
X126335238Y44419286D01*
X126430476Y44371667D01*
X126906666Y43752620D02*
X126906666Y44419286D01*
X126906666Y44752620D02*
X126859047Y44705000D01*
X126906666Y44657381D01*
X126954285Y44705000D01*
X126906666Y44752620D01*
X126906666Y44657381D01*
X127382857Y43752620D02*
X127382857Y44752620D01*
X127382857Y44371667D02*
X127478095Y44419286D01*
X127668571Y44419286D01*
X127763809Y44371667D01*
X127811428Y44324048D01*
X127859047Y44228810D01*
X127859047Y43943096D01*
X127811428Y43847858D01*
X127763809Y43800239D01*
X127668571Y43752620D01*
X127478095Y43752620D01*
X127382857Y43800239D01*
X128430476Y43752620D02*
X128335238Y43800239D01*
X128287619Y43895477D01*
X128287619Y44752620D01*
X129192380Y43800239D02*
X129097142Y43752620D01*
X128906666Y43752620D01*
X128811428Y43800239D01*
X128763809Y43895477D01*
X128763809Y44276429D01*
X128811428Y44371667D01*
X128906666Y44419286D01*
X129097142Y44419286D01*
X129192380Y44371667D01*
X129240000Y44276429D01*
X129240000Y44181191D01*
X128763809Y44085953D01*
X122335238Y42142620D02*
X122335238Y43142620D01*
X122716190Y43142620D01*
X122811428Y43095000D01*
X122859047Y43047381D01*
X122906666Y42952143D01*
X122906666Y42809286D01*
X122859047Y42714048D01*
X122811428Y42666429D01*
X122716190Y42618810D01*
X122335238Y42618810D01*
X123335238Y42142620D02*
X123335238Y42809286D01*
X123335238Y42618810D02*
X123382857Y42714048D01*
X123430476Y42761667D01*
X123525714Y42809286D01*
X123620952Y42809286D01*
X124097142Y42142620D02*
X124001904Y42190239D01*
X123954285Y42237858D01*
X123906666Y42333096D01*
X123906666Y42618810D01*
X123954285Y42714048D01*
X124001904Y42761667D01*
X124097142Y42809286D01*
X124240000Y42809286D01*
X124335238Y42761667D01*
X124382857Y42714048D01*
X124430476Y42618810D01*
X124430476Y42333096D01*
X124382857Y42237858D01*
X124335238Y42190239D01*
X124240000Y42142620D01*
X124097142Y42142620D01*
X125287619Y42809286D02*
X125287619Y41999762D01*
X125240000Y41904524D01*
X125192380Y41856905D01*
X125097142Y41809286D01*
X124954285Y41809286D01*
X124859047Y41856905D01*
X125287619Y42190239D02*
X125192380Y42142620D01*
X125001904Y42142620D01*
X124906666Y42190239D01*
X124859047Y42237858D01*
X124811428Y42333096D01*
X124811428Y42618810D01*
X124859047Y42714048D01*
X124906666Y42761667D01*
X125001904Y42809286D01*
X125192380Y42809286D01*
X125287619Y42761667D01*
X125763809Y42142620D02*
X125763809Y42809286D01*
X125763809Y42618810D02*
X125811428Y42714048D01*
X125859047Y42761667D01*
X125954285Y42809286D01*
X126049523Y42809286D01*
X126763809Y42190239D02*
X126668571Y42142620D01*
X126478095Y42142620D01*
X126382857Y42190239D01*
X126335238Y42285477D01*
X126335238Y42666429D01*
X126382857Y42761667D01*
X126478095Y42809286D01*
X126668571Y42809286D01*
X126763809Y42761667D01*
X126811428Y42666429D01*
X126811428Y42571191D01*
X126335238Y42475953D01*
X127192380Y42190239D02*
X127287619Y42142620D01*
X127478095Y42142620D01*
X127573333Y42190239D01*
X127620952Y42285477D01*
X127620952Y42333096D01*
X127573333Y42428334D01*
X127478095Y42475953D01*
X127335238Y42475953D01*
X127240000Y42523572D01*
X127192380Y42618810D01*
X127192380Y42666429D01*
X127240000Y42761667D01*
X127335238Y42809286D01*
X127478095Y42809286D01*
X127573333Y42761667D01*
X128001904Y42190239D02*
X128097142Y42142620D01*
X128287619Y42142620D01*
X128382857Y42190239D01*
X128430476Y42285477D01*
X128430476Y42333096D01*
X128382857Y42428334D01*
X128287619Y42475953D01*
X128144761Y42475953D01*
X128049523Y42523572D01*
X128001904Y42618810D01*
X128001904Y42666429D01*
X128049523Y42761667D01*
X128144761Y42809286D01*
X128287619Y42809286D01*
X128382857Y42761667D01*
X124501904Y40627858D02*
X124454285Y40580239D01*
X124311428Y40532620D01*
X124216190Y40532620D01*
X124073333Y40580239D01*
X123978095Y40675477D01*
X123930476Y40770715D01*
X123882857Y40961191D01*
X123882857Y41104048D01*
X123930476Y41294524D01*
X123978095Y41389762D01*
X124073333Y41485000D01*
X124216190Y41532620D01*
X124311428Y41532620D01*
X124454285Y41485000D01*
X124501904Y41437381D01*
X125073333Y40532620D02*
X124978095Y40580239D01*
X124930476Y40675477D01*
X124930476Y41532620D01*
X125597142Y40532620D02*
X125501904Y40580239D01*
X125454285Y40627858D01*
X125406666Y40723096D01*
X125406666Y41008810D01*
X125454285Y41104048D01*
X125501904Y41151667D01*
X125597142Y41199286D01*
X125740000Y41199286D01*
X125835238Y41151667D01*
X125882857Y41104048D01*
X125930476Y41008810D01*
X125930476Y40723096D01*
X125882857Y40627858D01*
X125835238Y40580239D01*
X125740000Y40532620D01*
X125597142Y40532620D01*
X126787619Y40580239D02*
X126692380Y40532620D01*
X126501904Y40532620D01*
X126406666Y40580239D01*
X126359047Y40627858D01*
X126311428Y40723096D01*
X126311428Y41008810D01*
X126359047Y41104048D01*
X126406666Y41151667D01*
X126501904Y41199286D01*
X126692380Y41199286D01*
X126787619Y41151667D01*
X127216190Y40532620D02*
X127216190Y41532620D01*
X127311428Y40913572D02*
X127597142Y40532620D01*
X127597142Y41199286D02*
X127216190Y40818334D01*
%TO.C,RV2*%
X51597380Y21199762D02*
X51121190Y20866429D01*
X51597380Y20628334D02*
X50597380Y20628334D01*
X50597380Y21009286D01*
X50645000Y21104524D01*
X50692619Y21152143D01*
X50787857Y21199762D01*
X50930714Y21199762D01*
X51025952Y21152143D01*
X51073571Y21104524D01*
X51121190Y21009286D01*
X51121190Y20628334D01*
X50597380Y21485477D02*
X51597380Y21818810D01*
X50597380Y22152143D01*
X50692619Y22437858D02*
X50645000Y22485477D01*
X50597380Y22580715D01*
X50597380Y22818810D01*
X50645000Y22914048D01*
X50692619Y22961667D01*
X50787857Y23009286D01*
X50883095Y23009286D01*
X51025952Y22961667D01*
X51597380Y22390239D01*
X51597380Y23009286D01*
%TO.C,DS2*%
X8727380Y29030596D02*
X7727380Y29030596D01*
X7727380Y29268691D01*
X7775000Y29411548D01*
X7870238Y29506786D01*
X7965476Y29554405D01*
X8155952Y29602024D01*
X8298809Y29602024D01*
X8489285Y29554405D01*
X8584523Y29506786D01*
X8679761Y29411548D01*
X8727380Y29268691D01*
X8727380Y29030596D01*
X8679761Y29982977D02*
X8727380Y30125834D01*
X8727380Y30363929D01*
X8679761Y30459167D01*
X8632142Y30506786D01*
X8536904Y30554405D01*
X8441666Y30554405D01*
X8346428Y30506786D01*
X8298809Y30459167D01*
X8251190Y30363929D01*
X8203571Y30173453D01*
X8155952Y30078215D01*
X8108333Y30030596D01*
X8013095Y29982977D01*
X7917857Y29982977D01*
X7822619Y30030596D01*
X7775000Y30078215D01*
X7727380Y30173453D01*
X7727380Y30411548D01*
X7775000Y30554405D01*
X7822619Y30935358D02*
X7775000Y30982977D01*
X7727380Y31078215D01*
X7727380Y31316310D01*
X7775000Y31411548D01*
X7822619Y31459167D01*
X7917857Y31506786D01*
X8013095Y31506786D01*
X8155952Y31459167D01*
X8727380Y30887739D01*
X8727380Y31506786D01*
%TO.C,H4*%
X134238095Y8747620D02*
X134238095Y9747620D01*
X134238095Y9271429D02*
X134809523Y9271429D01*
X134809523Y8747620D02*
X134809523Y9747620D01*
X135714285Y9414286D02*
X135714285Y8747620D01*
X135476190Y9795239D02*
X135238095Y9080953D01*
X135857142Y9080953D01*
%TO.C,R3*%
X98252380Y41963334D02*
X97776190Y41630000D01*
X98252380Y41391905D02*
X97252380Y41391905D01*
X97252380Y41772858D01*
X97300000Y41868096D01*
X97347619Y41915715D01*
X97442857Y41963334D01*
X97585714Y41963334D01*
X97680952Y41915715D01*
X97728571Y41868096D01*
X97776190Y41772858D01*
X97776190Y41391905D01*
X97252380Y42296667D02*
X97252380Y42915715D01*
X97633333Y42582381D01*
X97633333Y42725239D01*
X97680952Y42820477D01*
X97728571Y42868096D01*
X97823809Y42915715D01*
X98061904Y42915715D01*
X98157142Y42868096D01*
X98204761Y42820477D01*
X98252380Y42725239D01*
X98252380Y42439524D01*
X98204761Y42344286D01*
X98157142Y42296667D01*
%TO.C,C5*%
X67297142Y45773334D02*
X67344761Y45725715D01*
X67392380Y45582858D01*
X67392380Y45487620D01*
X67344761Y45344762D01*
X67249523Y45249524D01*
X67154285Y45201905D01*
X66963809Y45154286D01*
X66820952Y45154286D01*
X66630476Y45201905D01*
X66535238Y45249524D01*
X66440000Y45344762D01*
X66392380Y45487620D01*
X66392380Y45582858D01*
X66440000Y45725715D01*
X66487619Y45773334D01*
X66392380Y46678096D02*
X66392380Y46201905D01*
X66868571Y46154286D01*
X66820952Y46201905D01*
X66773333Y46297143D01*
X66773333Y46535239D01*
X66820952Y46630477D01*
X66868571Y46678096D01*
X66963809Y46725715D01*
X67201904Y46725715D01*
X67297142Y46678096D01*
X67344761Y46630477D01*
X67392380Y46535239D01*
X67392380Y46297143D01*
X67344761Y46201905D01*
X67297142Y46154286D01*
%TO.C,R8*%
X96363333Y49677620D02*
X96030000Y50153810D01*
X95791904Y49677620D02*
X95791904Y50677620D01*
X96172857Y50677620D01*
X96268095Y50630000D01*
X96315714Y50582381D01*
X96363333Y50487143D01*
X96363333Y50344286D01*
X96315714Y50249048D01*
X96268095Y50201429D01*
X96172857Y50153810D01*
X95791904Y50153810D01*
X96934761Y50249048D02*
X96839523Y50296667D01*
X96791904Y50344286D01*
X96744285Y50439524D01*
X96744285Y50487143D01*
X96791904Y50582381D01*
X96839523Y50630000D01*
X96934761Y50677620D01*
X97125238Y50677620D01*
X97220476Y50630000D01*
X97268095Y50582381D01*
X97315714Y50487143D01*
X97315714Y50439524D01*
X97268095Y50344286D01*
X97220476Y50296667D01*
X97125238Y50249048D01*
X96934761Y50249048D01*
X96839523Y50201429D01*
X96791904Y50153810D01*
X96744285Y50058572D01*
X96744285Y49868096D01*
X96791904Y49772858D01*
X96839523Y49725239D01*
X96934761Y49677620D01*
X97125238Y49677620D01*
X97220476Y49725239D01*
X97268095Y49772858D01*
X97315714Y49868096D01*
X97315714Y50058572D01*
X97268095Y50153810D01*
X97220476Y50201429D01*
X97125238Y50249048D01*
%TO.C,R9*%
X30323333Y5737620D02*
X29990000Y6213810D01*
X29751904Y5737620D02*
X29751904Y6737620D01*
X30132857Y6737620D01*
X30228095Y6690000D01*
X30275714Y6642381D01*
X30323333Y6547143D01*
X30323333Y6404286D01*
X30275714Y6309048D01*
X30228095Y6261429D01*
X30132857Y6213810D01*
X29751904Y6213810D01*
X30799523Y5737620D02*
X30990000Y5737620D01*
X31085238Y5785239D01*
X31132857Y5832858D01*
X31228095Y5975715D01*
X31275714Y6166191D01*
X31275714Y6547143D01*
X31228095Y6642381D01*
X31180476Y6690000D01*
X31085238Y6737620D01*
X30894761Y6737620D01*
X30799523Y6690000D01*
X30751904Y6642381D01*
X30704285Y6547143D01*
X30704285Y6309048D01*
X30751904Y6213810D01*
X30799523Y6166191D01*
X30894761Y6118572D01*
X31085238Y6118572D01*
X31180476Y6166191D01*
X31228095Y6213810D01*
X31275714Y6309048D01*
%TO.C,J1*%
X110166666Y42467620D02*
X110166666Y41753334D01*
X110119047Y41610477D01*
X110023809Y41515239D01*
X109880952Y41467620D01*
X109785714Y41467620D01*
X111166666Y41467620D02*
X110595238Y41467620D01*
X110880952Y41467620D02*
X110880952Y42467620D01*
X110785714Y42324762D01*
X110690476Y42229524D01*
X110595238Y42181905D01*
%TO.C,R2*%
X103563333Y31897620D02*
X103230000Y32373810D01*
X102991904Y31897620D02*
X102991904Y32897620D01*
X103372857Y32897620D01*
X103468095Y32850000D01*
X103515714Y32802381D01*
X103563333Y32707143D01*
X103563333Y32564286D01*
X103515714Y32469048D01*
X103468095Y32421429D01*
X103372857Y32373810D01*
X102991904Y32373810D01*
X103944285Y32802381D02*
X103991904Y32850000D01*
X104087142Y32897620D01*
X104325238Y32897620D01*
X104420476Y32850000D01*
X104468095Y32802381D01*
X104515714Y32707143D01*
X104515714Y32611905D01*
X104468095Y32469048D01*
X103896666Y31897620D01*
X104515714Y31897620D01*
%TO.C,C9*%
X13813333Y21832858D02*
X13765714Y21785239D01*
X13622857Y21737620D01*
X13527619Y21737620D01*
X13384761Y21785239D01*
X13289523Y21880477D01*
X13241904Y21975715D01*
X13194285Y22166191D01*
X13194285Y22309048D01*
X13241904Y22499524D01*
X13289523Y22594762D01*
X13384761Y22690000D01*
X13527619Y22737620D01*
X13622857Y22737620D01*
X13765714Y22690000D01*
X13813333Y22642381D01*
X14289523Y21737620D02*
X14480000Y21737620D01*
X14575238Y21785239D01*
X14622857Y21832858D01*
X14718095Y21975715D01*
X14765714Y22166191D01*
X14765714Y22547143D01*
X14718095Y22642381D01*
X14670476Y22690000D01*
X14575238Y22737620D01*
X14384761Y22737620D01*
X14289523Y22690000D01*
X14241904Y22642381D01*
X14194285Y22547143D01*
X14194285Y22309048D01*
X14241904Y22213810D01*
X14289523Y22166191D01*
X14384761Y22118572D01*
X14575238Y22118572D01*
X14670476Y22166191D01*
X14718095Y22213810D01*
X14765714Y22309048D01*
%TO.C,C10*%
X13337142Y18022858D02*
X13289523Y17975239D01*
X13146666Y17927620D01*
X13051428Y17927620D01*
X12908571Y17975239D01*
X12813333Y18070477D01*
X12765714Y18165715D01*
X12718095Y18356191D01*
X12718095Y18499048D01*
X12765714Y18689524D01*
X12813333Y18784762D01*
X12908571Y18880000D01*
X13051428Y18927620D01*
X13146666Y18927620D01*
X13289523Y18880000D01*
X13337142Y18832381D01*
X14289523Y17927620D02*
X13718095Y17927620D01*
X14003809Y17927620D02*
X14003809Y18927620D01*
X13908571Y18784762D01*
X13813333Y18689524D01*
X13718095Y18641905D01*
X14908571Y18927620D02*
X15003809Y18927620D01*
X15099047Y18880000D01*
X15146666Y18832381D01*
X15194285Y18737143D01*
X15241904Y18546667D01*
X15241904Y18308572D01*
X15194285Y18118096D01*
X15146666Y18022858D01*
X15099047Y17975239D01*
X15003809Y17927620D01*
X14908571Y17927620D01*
X14813333Y17975239D01*
X14765714Y18022858D01*
X14718095Y18118096D01*
X14670476Y18308572D01*
X14670476Y18546667D01*
X14718095Y18737143D01*
X14765714Y18832381D01*
X14813333Y18880000D01*
X14908571Y18927620D01*
%TO.C,SW1*%
X98984761Y15396667D02*
X99032380Y15539524D01*
X99032380Y15777620D01*
X98984761Y15872858D01*
X98937142Y15920477D01*
X98841904Y15968096D01*
X98746666Y15968096D01*
X98651428Y15920477D01*
X98603809Y15872858D01*
X98556190Y15777620D01*
X98508571Y15587143D01*
X98460952Y15491905D01*
X98413333Y15444286D01*
X98318095Y15396667D01*
X98222857Y15396667D01*
X98127619Y15444286D01*
X98080000Y15491905D01*
X98032380Y15587143D01*
X98032380Y15825239D01*
X98080000Y15968096D01*
X98032380Y16301429D02*
X99032380Y16539524D01*
X98318095Y16730000D01*
X99032380Y16920477D01*
X98032380Y17158572D01*
X99032380Y18063334D02*
X99032380Y17491905D01*
X99032380Y17777620D02*
X98032380Y17777620D01*
X98175238Y17682381D01*
X98270476Y17587143D01*
X98318095Y17491905D01*
%TO.C,C2*%
X81123333Y40122858D02*
X81075714Y40075239D01*
X80932857Y40027620D01*
X80837619Y40027620D01*
X80694761Y40075239D01*
X80599523Y40170477D01*
X80551904Y40265715D01*
X80504285Y40456191D01*
X80504285Y40599048D01*
X80551904Y40789524D01*
X80599523Y40884762D01*
X80694761Y40980000D01*
X80837619Y41027620D01*
X80932857Y41027620D01*
X81075714Y40980000D01*
X81123333Y40932381D01*
X81504285Y40932381D02*
X81551904Y40980000D01*
X81647142Y41027620D01*
X81885238Y41027620D01*
X81980476Y40980000D01*
X82028095Y40932381D01*
X82075714Y40837143D01*
X82075714Y40741905D01*
X82028095Y40599048D01*
X81456666Y40027620D01*
X82075714Y40027620D01*
%TO.C,C1*%
X82027142Y26723334D02*
X82074761Y26675715D01*
X82122380Y26532858D01*
X82122380Y26437620D01*
X82074761Y26294762D01*
X81979523Y26199524D01*
X81884285Y26151905D01*
X81693809Y26104286D01*
X81550952Y26104286D01*
X81360476Y26151905D01*
X81265238Y26199524D01*
X81170000Y26294762D01*
X81122380Y26437620D01*
X81122380Y26532858D01*
X81170000Y26675715D01*
X81217619Y26723334D01*
X82122380Y27675715D02*
X82122380Y27104286D01*
X82122380Y27390000D02*
X81122380Y27390000D01*
X81265238Y27294762D01*
X81360476Y27199524D01*
X81408095Y27104286D01*
%TO.C,TP8*%
X43912380Y14198096D02*
X43912380Y14769524D01*
X44912380Y14483810D02*
X43912380Y14483810D01*
X44912380Y15102858D02*
X43912380Y15102858D01*
X43912380Y15483810D01*
X43960000Y15579048D01*
X44007619Y15626667D01*
X44102857Y15674286D01*
X44245714Y15674286D01*
X44340952Y15626667D01*
X44388571Y15579048D01*
X44436190Y15483810D01*
X44436190Y15102858D01*
X44340952Y16245715D02*
X44293333Y16150477D01*
X44245714Y16102858D01*
X44150476Y16055239D01*
X44102857Y16055239D01*
X44007619Y16102858D01*
X43960000Y16150477D01*
X43912380Y16245715D01*
X43912380Y16436191D01*
X43960000Y16531429D01*
X44007619Y16579048D01*
X44102857Y16626667D01*
X44150476Y16626667D01*
X44245714Y16579048D01*
X44293333Y16531429D01*
X44340952Y16436191D01*
X44340952Y16245715D01*
X44388571Y16150477D01*
X44436190Y16102858D01*
X44531428Y16055239D01*
X44721904Y16055239D01*
X44817142Y16102858D01*
X44864761Y16150477D01*
X44912380Y16245715D01*
X44912380Y16436191D01*
X44864761Y16531429D01*
X44817142Y16579048D01*
X44721904Y16626667D01*
X44531428Y16626667D01*
X44436190Y16579048D01*
X44388571Y16531429D01*
X44340952Y16436191D01*
%TO.C,U2*%
X125772380Y22318096D02*
X126581904Y22318096D01*
X126677142Y22365715D01*
X126724761Y22413334D01*
X126772380Y22508572D01*
X126772380Y22699048D01*
X126724761Y22794286D01*
X126677142Y22841905D01*
X126581904Y22889524D01*
X125772380Y22889524D01*
X125867619Y23318096D02*
X125820000Y23365715D01*
X125772380Y23460953D01*
X125772380Y23699048D01*
X125820000Y23794286D01*
X125867619Y23841905D01*
X125962857Y23889524D01*
X126058095Y23889524D01*
X126200952Y23841905D01*
X126772380Y23270477D01*
X126772380Y23889524D01*
%TO.C,Y1*%
X77003809Y49513810D02*
X77003809Y49037620D01*
X76670476Y50037620D02*
X77003809Y49513810D01*
X77337142Y50037620D01*
X78194285Y49037620D02*
X77622857Y49037620D01*
X77908571Y49037620D02*
X77908571Y50037620D01*
X77813333Y49894762D01*
X77718095Y49799524D01*
X77622857Y49751905D01*
%TO.C,TP5*%
X5098095Y80235620D02*
X5669523Y80235620D01*
X5383809Y79235620D02*
X5383809Y80235620D01*
X6002857Y79235620D02*
X6002857Y80235620D01*
X6383809Y80235620D01*
X6479047Y80188000D01*
X6526666Y80140381D01*
X6574285Y80045143D01*
X6574285Y79902286D01*
X6526666Y79807048D01*
X6479047Y79759429D01*
X6383809Y79711810D01*
X6002857Y79711810D01*
X7479047Y80235620D02*
X7002857Y80235620D01*
X6955238Y79759429D01*
X7002857Y79807048D01*
X7098095Y79854667D01*
X7336190Y79854667D01*
X7431428Y79807048D01*
X7479047Y79759429D01*
X7526666Y79664191D01*
X7526666Y79426096D01*
X7479047Y79330858D01*
X7431428Y79283239D01*
X7336190Y79235620D01*
X7098095Y79235620D01*
X7002857Y79283239D01*
X6955238Y79330858D01*
%TO.C,R6*%
X85353333Y19707620D02*
X85020000Y20183810D01*
X84781904Y19707620D02*
X84781904Y20707620D01*
X85162857Y20707620D01*
X85258095Y20660000D01*
X85305714Y20612381D01*
X85353333Y20517143D01*
X85353333Y20374286D01*
X85305714Y20279048D01*
X85258095Y20231429D01*
X85162857Y20183810D01*
X84781904Y20183810D01*
X86210476Y20707620D02*
X86020000Y20707620D01*
X85924761Y20660000D01*
X85877142Y20612381D01*
X85781904Y20469524D01*
X85734285Y20279048D01*
X85734285Y19898096D01*
X85781904Y19802858D01*
X85829523Y19755239D01*
X85924761Y19707620D01*
X86115238Y19707620D01*
X86210476Y19755239D01*
X86258095Y19802858D01*
X86305714Y19898096D01*
X86305714Y20136191D01*
X86258095Y20231429D01*
X86210476Y20279048D01*
X86115238Y20326667D01*
X85924761Y20326667D01*
X85829523Y20279048D01*
X85781904Y20231429D01*
X85734285Y20136191D01*
%TO.C,R5*%
X79853333Y18817620D02*
X79520000Y19293810D01*
X79281904Y18817620D02*
X79281904Y19817620D01*
X79662857Y19817620D01*
X79758095Y19770000D01*
X79805714Y19722381D01*
X79853333Y19627143D01*
X79853333Y19484286D01*
X79805714Y19389048D01*
X79758095Y19341429D01*
X79662857Y19293810D01*
X79281904Y19293810D01*
X80758095Y19817620D02*
X80281904Y19817620D01*
X80234285Y19341429D01*
X80281904Y19389048D01*
X80377142Y19436667D01*
X80615238Y19436667D01*
X80710476Y19389048D01*
X80758095Y19341429D01*
X80805714Y19246191D01*
X80805714Y19008096D01*
X80758095Y18912858D01*
X80710476Y18865239D01*
X80615238Y18817620D01*
X80377142Y18817620D01*
X80281904Y18865239D01*
X80234285Y18912858D01*
%TO.C,U5*%
X95738095Y82347620D02*
X95738095Y81538096D01*
X95785714Y81442858D01*
X95833333Y81395239D01*
X95928571Y81347620D01*
X96119047Y81347620D01*
X96214285Y81395239D01*
X96261904Y81442858D01*
X96309523Y81538096D01*
X96309523Y82347620D01*
X97261904Y82347620D02*
X96785714Y82347620D01*
X96738095Y81871429D01*
X96785714Y81919048D01*
X96880952Y81966667D01*
X97119047Y81966667D01*
X97214285Y81919048D01*
X97261904Y81871429D01*
X97309523Y81776191D01*
X97309523Y81538096D01*
X97261904Y81442858D01*
X97214285Y81395239D01*
X97119047Y81347620D01*
X96880952Y81347620D01*
X96785714Y81395239D01*
X96738095Y81442858D01*
%TO.C,TP2*%
X116858095Y30705620D02*
X117429523Y30705620D01*
X117143809Y29705620D02*
X117143809Y30705620D01*
X117762857Y29705620D02*
X117762857Y30705620D01*
X118143809Y30705620D01*
X118239047Y30658000D01*
X118286666Y30610381D01*
X118334285Y30515143D01*
X118334285Y30372286D01*
X118286666Y30277048D01*
X118239047Y30229429D01*
X118143809Y30181810D01*
X117762857Y30181810D01*
X118715238Y30610381D02*
X118762857Y30658000D01*
X118858095Y30705620D01*
X119096190Y30705620D01*
X119191428Y30658000D01*
X119239047Y30610381D01*
X119286666Y30515143D01*
X119286666Y30419905D01*
X119239047Y30277048D01*
X118667619Y29705620D01*
X119286666Y29705620D01*
%TO.C,U1*%
X99572380Y32468096D02*
X100381904Y32468096D01*
X100477142Y32515715D01*
X100524761Y32563334D01*
X100572380Y32658572D01*
X100572380Y32849048D01*
X100524761Y32944286D01*
X100477142Y32991905D01*
X100381904Y33039524D01*
X99572380Y33039524D01*
X100572380Y34039524D02*
X100572380Y33468096D01*
X100572380Y33753810D02*
X99572380Y33753810D01*
X99715238Y33658572D01*
X99810476Y33563334D01*
X99858095Y33468096D01*
%TO.C,J6*%
X92381666Y18322620D02*
X92381666Y17608334D01*
X92334047Y17465477D01*
X92238809Y17370239D01*
X92095952Y17322620D01*
X92000714Y17322620D01*
X93286428Y18322620D02*
X93095952Y18322620D01*
X93000714Y18275000D01*
X92953095Y18227381D01*
X92857857Y18084524D01*
X92810238Y17894048D01*
X92810238Y17513096D01*
X92857857Y17417858D01*
X92905476Y17370239D01*
X93000714Y17322620D01*
X93191190Y17322620D01*
X93286428Y17370239D01*
X93334047Y17417858D01*
X93381666Y17513096D01*
X93381666Y17751191D01*
X93334047Y17846429D01*
X93286428Y17894048D01*
X93191190Y17941667D01*
X93000714Y17941667D01*
X92905476Y17894048D01*
X92857857Y17846429D01*
X92810238Y17751191D01*
%TO.C,U3*%
X73342380Y12168096D02*
X74151904Y12168096D01*
X74247142Y12215715D01*
X74294761Y12263334D01*
X74342380Y12358572D01*
X74342380Y12549048D01*
X74294761Y12644286D01*
X74247142Y12691905D01*
X74151904Y12739524D01*
X73342380Y12739524D01*
X73342380Y13120477D02*
X73342380Y13739524D01*
X73723333Y13406191D01*
X73723333Y13549048D01*
X73770952Y13644286D01*
X73818571Y13691905D01*
X73913809Y13739524D01*
X74151904Y13739524D01*
X74247142Y13691905D01*
X74294761Y13644286D01*
X74342380Y13549048D01*
X74342380Y13263334D01*
X74294761Y13168096D01*
X74247142Y13120477D01*
%TO.C,J3*%
X51317380Y7506667D02*
X52031666Y7506667D01*
X52174523Y7459048D01*
X52269761Y7363810D01*
X52317380Y7220953D01*
X52317380Y7125715D01*
X51317380Y7887620D02*
X51317380Y8506667D01*
X51698333Y8173334D01*
X51698333Y8316191D01*
X51745952Y8411429D01*
X51793571Y8459048D01*
X51888809Y8506667D01*
X52126904Y8506667D01*
X52222142Y8459048D01*
X52269761Y8411429D01*
X52317380Y8316191D01*
X52317380Y8030477D01*
X52269761Y7935239D01*
X52222142Y7887620D01*
%TO.C,D1*%
X93251904Y23007620D02*
X93251904Y24007620D01*
X93490000Y24007620D01*
X93632857Y23960000D01*
X93728095Y23864762D01*
X93775714Y23769524D01*
X93823333Y23579048D01*
X93823333Y23436191D01*
X93775714Y23245715D01*
X93728095Y23150477D01*
X93632857Y23055239D01*
X93490000Y23007620D01*
X93251904Y23007620D01*
X94775714Y23007620D02*
X94204285Y23007620D01*
X94490000Y23007620D02*
X94490000Y24007620D01*
X94394761Y23864762D01*
X94299523Y23769524D01*
X94204285Y23721905D01*
%TO.C,J5*%
X64022380Y7506667D02*
X64736666Y7506667D01*
X64879523Y7459048D01*
X64974761Y7363810D01*
X65022380Y7220953D01*
X65022380Y7125715D01*
X64022380Y8459048D02*
X64022380Y7982858D01*
X64498571Y7935239D01*
X64450952Y7982858D01*
X64403333Y8078096D01*
X64403333Y8316191D01*
X64450952Y8411429D01*
X64498571Y8459048D01*
X64593809Y8506667D01*
X64831904Y8506667D01*
X64927142Y8459048D01*
X64974761Y8411429D01*
X65022380Y8316191D01*
X65022380Y8078096D01*
X64974761Y7982858D01*
X64927142Y7935239D01*
%TO.C,R7*%
X13813333Y25547620D02*
X13480000Y26023810D01*
X13241904Y25547620D02*
X13241904Y26547620D01*
X13622857Y26547620D01*
X13718095Y26500000D01*
X13765714Y26452381D01*
X13813333Y26357143D01*
X13813333Y26214286D01*
X13765714Y26119048D01*
X13718095Y26071429D01*
X13622857Y26023810D01*
X13241904Y26023810D01*
X14146666Y26547620D02*
X14813333Y26547620D01*
X14384761Y25547620D01*
%TO.C,C4*%
X89267142Y45773334D02*
X89314761Y45725715D01*
X89362380Y45582858D01*
X89362380Y45487620D01*
X89314761Y45344762D01*
X89219523Y45249524D01*
X89124285Y45201905D01*
X88933809Y45154286D01*
X88790952Y45154286D01*
X88600476Y45201905D01*
X88505238Y45249524D01*
X88410000Y45344762D01*
X88362380Y45487620D01*
X88362380Y45582858D01*
X88410000Y45725715D01*
X88457619Y45773334D01*
X88695714Y46630477D02*
X89362380Y46630477D01*
X88314761Y46392381D02*
X89029047Y46154286D01*
X89029047Y46773334D01*
%TO.C,H2*%
X134238095Y88747620D02*
X134238095Y89747620D01*
X134238095Y89271429D02*
X134809523Y89271429D01*
X134809523Y88747620D02*
X134809523Y89747620D01*
X135238095Y89652381D02*
X135285714Y89700000D01*
X135380952Y89747620D01*
X135619047Y89747620D01*
X135714285Y89700000D01*
X135761904Y89652381D01*
X135809523Y89557143D01*
X135809523Y89461905D01*
X135761904Y89319048D01*
X135190476Y88747620D01*
X135809523Y88747620D01*
%TO.C,TP9*%
X6368095Y27437620D02*
X6939523Y27437620D01*
X6653809Y26437620D02*
X6653809Y27437620D01*
X7272857Y26437620D02*
X7272857Y27437620D01*
X7653809Y27437620D01*
X7749047Y27390000D01*
X7796666Y27342381D01*
X7844285Y27247143D01*
X7844285Y27104286D01*
X7796666Y27009048D01*
X7749047Y26961429D01*
X7653809Y26913810D01*
X7272857Y26913810D01*
X8320476Y26437620D02*
X8510952Y26437620D01*
X8606190Y26485239D01*
X8653809Y26532858D01*
X8749047Y26675715D01*
X8796666Y26866191D01*
X8796666Y27247143D01*
X8749047Y27342381D01*
X8701428Y27390000D01*
X8606190Y27437620D01*
X8415714Y27437620D01*
X8320476Y27390000D01*
X8272857Y27342381D01*
X8225238Y27247143D01*
X8225238Y27009048D01*
X8272857Y26913810D01*
X8320476Y26866191D01*
X8415714Y26818572D01*
X8606190Y26818572D01*
X8701428Y26866191D01*
X8749047Y26913810D01*
X8796666Y27009048D01*
%TO.C,RV1*%
X104839761Y42012620D02*
X104506428Y42488810D01*
X104268333Y42012620D02*
X104268333Y43012620D01*
X104649285Y43012620D01*
X104744523Y42965000D01*
X104792142Y42917381D01*
X104839761Y42822143D01*
X104839761Y42679286D01*
X104792142Y42584048D01*
X104744523Y42536429D01*
X104649285Y42488810D01*
X104268333Y42488810D01*
X105125476Y43012620D02*
X105458809Y42012620D01*
X105792142Y43012620D01*
X106649285Y42012620D02*
X106077857Y42012620D01*
X106363571Y42012620D02*
X106363571Y43012620D01*
X106268333Y42869762D01*
X106173095Y42774524D01*
X106077857Y42726905D01*
%TO.C,C11*%
X24497142Y5927143D02*
X24544761Y5879524D01*
X24592380Y5736667D01*
X24592380Y5641429D01*
X24544761Y5498572D01*
X24449523Y5403334D01*
X24354285Y5355715D01*
X24163809Y5308096D01*
X24020952Y5308096D01*
X23830476Y5355715D01*
X23735238Y5403334D01*
X23640000Y5498572D01*
X23592380Y5641429D01*
X23592380Y5736667D01*
X23640000Y5879524D01*
X23687619Y5927143D01*
X24592380Y6879524D02*
X24592380Y6308096D01*
X24592380Y6593810D02*
X23592380Y6593810D01*
X23735238Y6498572D01*
X23830476Y6403334D01*
X23878095Y6308096D01*
X24592380Y7831905D02*
X24592380Y7260477D01*
X24592380Y7546191D02*
X23592380Y7546191D01*
X23735238Y7450953D01*
X23830476Y7355715D01*
X23878095Y7260477D01*
%TO.C,H3*%
X4238095Y8747620D02*
X4238095Y9747620D01*
X4238095Y9271429D02*
X4809523Y9271429D01*
X4809523Y8747620D02*
X4809523Y9747620D01*
X5190476Y9747620D02*
X5809523Y9747620D01*
X5476190Y9366667D01*
X5619047Y9366667D01*
X5714285Y9319048D01*
X5761904Y9271429D01*
X5809523Y9176191D01*
X5809523Y8938096D01*
X5761904Y8842858D01*
X5714285Y8795239D01*
X5619047Y8747620D01*
X5333333Y8747620D01*
X5238095Y8795239D01*
X5190476Y8842858D01*
%TO.C,Y2*%
X77003809Y3373810D02*
X77003809Y2897620D01*
X76670476Y3897620D02*
X77003809Y3373810D01*
X77337142Y3897620D01*
X77622857Y3802381D02*
X77670476Y3850000D01*
X77765714Y3897620D01*
X78003809Y3897620D01*
X78099047Y3850000D01*
X78146666Y3802381D01*
X78194285Y3707143D01*
X78194285Y3611905D01*
X78146666Y3469048D01*
X77575238Y2897620D01*
X78194285Y2897620D01*
%TO.C,R4*%
X91522380Y41963334D02*
X91046190Y41630000D01*
X91522380Y41391905D02*
X90522380Y41391905D01*
X90522380Y41772858D01*
X90570000Y41868096D01*
X90617619Y41915715D01*
X90712857Y41963334D01*
X90855714Y41963334D01*
X90950952Y41915715D01*
X90998571Y41868096D01*
X91046190Y41772858D01*
X91046190Y41391905D01*
X90855714Y42820477D02*
X91522380Y42820477D01*
X90474761Y42582381D02*
X91189047Y42344286D01*
X91189047Y42963334D01*
%TO.C,H1*%
X4238095Y88747620D02*
X4238095Y89747620D01*
X4238095Y89271429D02*
X4809523Y89271429D01*
X4809523Y88747620D02*
X4809523Y89747620D01*
X5809523Y88747620D02*
X5238095Y88747620D01*
X5523809Y88747620D02*
X5523809Y89747620D01*
X5428571Y89604762D01*
X5333333Y89509524D01*
X5238095Y89461905D01*
%TO.C,R10*%
X36402380Y8467143D02*
X35926190Y8133810D01*
X36402380Y7895715D02*
X35402380Y7895715D01*
X35402380Y8276667D01*
X35450000Y8371905D01*
X35497619Y8419524D01*
X35592857Y8467143D01*
X35735714Y8467143D01*
X35830952Y8419524D01*
X35878571Y8371905D01*
X35926190Y8276667D01*
X35926190Y7895715D01*
X36402380Y9419524D02*
X36402380Y8848096D01*
X36402380Y9133810D02*
X35402380Y9133810D01*
X35545238Y9038572D01*
X35640476Y8943334D01*
X35688095Y8848096D01*
X35402380Y10038572D02*
X35402380Y10133810D01*
X35450000Y10229048D01*
X35497619Y10276667D01*
X35592857Y10324286D01*
X35783333Y10371905D01*
X36021428Y10371905D01*
X36211904Y10324286D01*
X36307142Y10276667D01*
X36354761Y10229048D01*
X36402380Y10133810D01*
X36402380Y10038572D01*
X36354761Y9943334D01*
X36307142Y9895715D01*
X36211904Y9848096D01*
X36021428Y9800477D01*
X35783333Y9800477D01*
X35592857Y9848096D01*
X35497619Y9895715D01*
X35450000Y9943334D01*
X35402380Y10038572D01*
%TO.C,C3*%
X105253333Y26912858D02*
X105205714Y26865239D01*
X105062857Y26817620D01*
X104967619Y26817620D01*
X104824761Y26865239D01*
X104729523Y26960477D01*
X104681904Y27055715D01*
X104634285Y27246191D01*
X104634285Y27389048D01*
X104681904Y27579524D01*
X104729523Y27674762D01*
X104824761Y27770000D01*
X104967619Y27817620D01*
X105062857Y27817620D01*
X105205714Y27770000D01*
X105253333Y27722381D01*
X105586666Y27817620D02*
X106205714Y27817620D01*
X105872380Y27436667D01*
X106015238Y27436667D01*
X106110476Y27389048D01*
X106158095Y27341429D01*
X106205714Y27246191D01*
X106205714Y27008096D01*
X106158095Y26912858D01*
X106110476Y26865239D01*
X106015238Y26817620D01*
X105729523Y26817620D01*
X105634285Y26865239D01*
X105586666Y26912858D01*
%TO.C,U4*%
X17447380Y18518096D02*
X18256904Y18518096D01*
X18352142Y18565715D01*
X18399761Y18613334D01*
X18447380Y18708572D01*
X18447380Y18899048D01*
X18399761Y18994286D01*
X18352142Y19041905D01*
X18256904Y19089524D01*
X17447380Y19089524D01*
X17780714Y19994286D02*
X18447380Y19994286D01*
X17399761Y19756191D02*
X18114047Y19518096D01*
X18114047Y20137143D01*
%TO.C,TP3*%
X81298095Y7117620D02*
X81869523Y7117620D01*
X81583809Y6117620D02*
X81583809Y7117620D01*
X82202857Y6117620D02*
X82202857Y7117620D01*
X82583809Y7117620D01*
X82679047Y7070000D01*
X82726666Y7022381D01*
X82774285Y6927143D01*
X82774285Y6784286D01*
X82726666Y6689048D01*
X82679047Y6641429D01*
X82583809Y6593810D01*
X82202857Y6593810D01*
X83107619Y7117620D02*
X83726666Y7117620D01*
X83393333Y6736667D01*
X83536190Y6736667D01*
X83631428Y6689048D01*
X83679047Y6641429D01*
X83726666Y6546191D01*
X83726666Y6308096D01*
X83679047Y6212858D01*
X83631428Y6165239D01*
X83536190Y6117620D01*
X83250476Y6117620D01*
X83155238Y6165239D01*
X83107619Y6212858D01*
%TO.C,C6*%
X126843333Y13452858D02*
X126795714Y13405239D01*
X126652857Y13357620D01*
X126557619Y13357620D01*
X126414761Y13405239D01*
X126319523Y13500477D01*
X126271904Y13595715D01*
X126224285Y13786191D01*
X126224285Y13929048D01*
X126271904Y14119524D01*
X126319523Y14214762D01*
X126414761Y14310000D01*
X126557619Y14357620D01*
X126652857Y14357620D01*
X126795714Y14310000D01*
X126843333Y14262381D01*
X127700476Y14357620D02*
X127510000Y14357620D01*
X127414761Y14310000D01*
X127367142Y14262381D01*
X127271904Y14119524D01*
X127224285Y13929048D01*
X127224285Y13548096D01*
X127271904Y13452858D01*
X127319523Y13405239D01*
X127414761Y13357620D01*
X127605238Y13357620D01*
X127700476Y13405239D01*
X127748095Y13452858D01*
X127795714Y13548096D01*
X127795714Y13786191D01*
X127748095Y13881429D01*
X127700476Y13929048D01*
X127605238Y13976667D01*
X127414761Y13976667D01*
X127319523Y13929048D01*
X127271904Y13881429D01*
X127224285Y13786191D01*
%TO.C,TP6*%
X130828095Y66265620D02*
X131399523Y66265620D01*
X131113809Y65265620D02*
X131113809Y66265620D01*
X131732857Y65265620D02*
X131732857Y66265620D01*
X132113809Y66265620D01*
X132209047Y66218000D01*
X132256666Y66170381D01*
X132304285Y66075143D01*
X132304285Y65932286D01*
X132256666Y65837048D01*
X132209047Y65789429D01*
X132113809Y65741810D01*
X131732857Y65741810D01*
X133161428Y66265620D02*
X132970952Y66265620D01*
X132875714Y66218000D01*
X132828095Y66170381D01*
X132732857Y66027524D01*
X132685238Y65837048D01*
X132685238Y65456096D01*
X132732857Y65360858D01*
X132780476Y65313239D01*
X132875714Y65265620D01*
X133066190Y65265620D01*
X133161428Y65313239D01*
X133209047Y65360858D01*
X133256666Y65456096D01*
X133256666Y65694191D01*
X133209047Y65789429D01*
X133161428Y65837048D01*
X133066190Y65884667D01*
X132875714Y65884667D01*
X132780476Y65837048D01*
X132732857Y65789429D01*
X132685238Y65694191D01*
%TO.C,TP7*%
X66058095Y10385620D02*
X66629523Y10385620D01*
X66343809Y9385620D02*
X66343809Y10385620D01*
X66962857Y9385620D02*
X66962857Y10385620D01*
X67343809Y10385620D01*
X67439047Y10338000D01*
X67486666Y10290381D01*
X67534285Y10195143D01*
X67534285Y10052286D01*
X67486666Y9957048D01*
X67439047Y9909429D01*
X67343809Y9861810D01*
X66962857Y9861810D01*
X67867619Y10385620D02*
X68534285Y10385620D01*
X68105714Y9385620D01*
%TO.C,C8*%
X74353333Y23102858D02*
X74305714Y23055239D01*
X74162857Y23007620D01*
X74067619Y23007620D01*
X73924761Y23055239D01*
X73829523Y23150477D01*
X73781904Y23245715D01*
X73734285Y23436191D01*
X73734285Y23579048D01*
X73781904Y23769524D01*
X73829523Y23864762D01*
X73924761Y23960000D01*
X74067619Y24007620D01*
X74162857Y24007620D01*
X74305714Y23960000D01*
X74353333Y23912381D01*
X74924761Y23579048D02*
X74829523Y23626667D01*
X74781904Y23674286D01*
X74734285Y23769524D01*
X74734285Y23817143D01*
X74781904Y23912381D01*
X74829523Y23960000D01*
X74924761Y24007620D01*
X75115238Y24007620D01*
X75210476Y23960000D01*
X75258095Y23912381D01*
X75305714Y23817143D01*
X75305714Y23769524D01*
X75258095Y23674286D01*
X75210476Y23626667D01*
X75115238Y23579048D01*
X74924761Y23579048D01*
X74829523Y23531429D01*
X74781904Y23483810D01*
X74734285Y23388572D01*
X74734285Y23198096D01*
X74781904Y23102858D01*
X74829523Y23055239D01*
X74924761Y23007620D01*
X75115238Y23007620D01*
X75210476Y23055239D01*
X75258095Y23102858D01*
X75305714Y23198096D01*
X75305714Y23388572D01*
X75258095Y23483810D01*
X75210476Y23531429D01*
X75115238Y23579048D01*
%TO.C,C7*%
X134463333Y12562858D02*
X134415714Y12515239D01*
X134272857Y12467620D01*
X134177619Y12467620D01*
X134034761Y12515239D01*
X133939523Y12610477D01*
X133891904Y12705715D01*
X133844285Y12896191D01*
X133844285Y13039048D01*
X133891904Y13229524D01*
X133939523Y13324762D01*
X134034761Y13420000D01*
X134177619Y13467620D01*
X134272857Y13467620D01*
X134415714Y13420000D01*
X134463333Y13372381D01*
X134796666Y13467620D02*
X135463333Y13467620D01*
X135034761Y12467620D01*
%TO.C,R11*%
X97757142Y26817620D02*
X97423809Y27293810D01*
X97185714Y26817620D02*
X97185714Y27817620D01*
X97566666Y27817620D01*
X97661904Y27770000D01*
X97709523Y27722381D01*
X97757142Y27627143D01*
X97757142Y27484286D01*
X97709523Y27389048D01*
X97661904Y27341429D01*
X97566666Y27293810D01*
X97185714Y27293810D01*
X98709523Y26817620D02*
X98138095Y26817620D01*
X98423809Y26817620D02*
X98423809Y27817620D01*
X98328571Y27674762D01*
X98233333Y27579524D01*
X98138095Y27531905D01*
X99661904Y26817620D02*
X99090476Y26817620D01*
X99376190Y26817620D02*
X99376190Y27817620D01*
X99280952Y27674762D01*
X99185714Y27579524D01*
X99090476Y27531905D01*
%TO.C,DS1*%
X12025714Y87515120D02*
X12025714Y88515120D01*
X12263809Y88515120D01*
X12406666Y88467500D01*
X12501904Y88372262D01*
X12549523Y88277024D01*
X12597142Y88086548D01*
X12597142Y87943691D01*
X12549523Y87753215D01*
X12501904Y87657977D01*
X12406666Y87562739D01*
X12263809Y87515120D01*
X12025714Y87515120D01*
X12978095Y87562739D02*
X13120952Y87515120D01*
X13359047Y87515120D01*
X13454285Y87562739D01*
X13501904Y87610358D01*
X13549523Y87705596D01*
X13549523Y87800834D01*
X13501904Y87896072D01*
X13454285Y87943691D01*
X13359047Y87991310D01*
X13168571Y88038929D01*
X13073333Y88086548D01*
X13025714Y88134167D01*
X12978095Y88229405D01*
X12978095Y88324643D01*
X13025714Y88419881D01*
X13073333Y88467500D01*
X13168571Y88515120D01*
X13406666Y88515120D01*
X13549523Y88467500D01*
X14501904Y87515120D02*
X13930476Y87515120D01*
X14216190Y87515120D02*
X14216190Y88515120D01*
X14120952Y88372262D01*
X14025714Y88277024D01*
X13930476Y88229405D01*
%TO.C,TP1*%
X62248095Y48485620D02*
X62819523Y48485620D01*
X62533809Y47485620D02*
X62533809Y48485620D01*
X63152857Y47485620D02*
X63152857Y48485620D01*
X63533809Y48485620D01*
X63629047Y48438000D01*
X63676666Y48390381D01*
X63724285Y48295143D01*
X63724285Y48152286D01*
X63676666Y48057048D01*
X63629047Y48009429D01*
X63533809Y47961810D01*
X63152857Y47961810D01*
X64676666Y47485620D02*
X64105238Y47485620D01*
X64390952Y47485620D02*
X64390952Y48485620D01*
X64295714Y48342762D01*
X64200476Y48247524D01*
X64105238Y48199905D01*
D11*
%TO.C,RV2*%
X52275000Y16910000D02*
X62045000Y16910000D01*
X52275000Y26680000D02*
X62045000Y26680000D01*
X62045000Y16910000D02*
X62045000Y26680000D01*
X52275000Y16910000D02*
X52275000Y26680000D01*
D10*
%TO.C,DS2*%
X59525000Y28695000D02*
X9075000Y28695000D01*
X59525000Y47945000D02*
X9075000Y47945000D01*
X59525000Y28695000D02*
X59525000Y47945000D01*
X9075000Y28695000D02*
X9075000Y47945000D01*
D12*
X26805000Y28095000D02*
G75*
G03*
X26805000Y28095000I-125000J0D01*
G01*
D11*
%TO.C,J1*%
X109170000Y38320000D02*
X111830000Y38320000D01*
X109170000Y25560000D02*
X111830000Y25560000D01*
X109170000Y40920000D02*
X110500000Y40920000D01*
X111830000Y38320000D02*
X111830000Y25560000D01*
X109170000Y38320000D02*
X109170000Y25560000D01*
X109170000Y39590000D02*
X109170000Y40920000D01*
%TO.C,SW1*%
X99630000Y19630000D02*
X99630000Y13830000D01*
X101580000Y19830000D02*
X104180000Y19830000D01*
X101580000Y13630000D02*
X104180000Y13630000D01*
X99580000Y11630000D02*
X99580000Y12630000D01*
X106130000Y19730000D02*
X106130000Y13730000D01*
X100580000Y11630000D02*
X99580000Y11630000D01*
%TO.C,TP8*%
X48200000Y15460000D02*
G75*
G03*
X48200000Y15460000I-1200000J0D01*
G01*
%TO.C,U2*%
X127370000Y20610000D02*
X127640000Y20610000D01*
X134270000Y20610000D02*
X134000000Y20610000D01*
X127370000Y22110000D02*
X127370000Y20610000D01*
X134270000Y22110000D02*
X134270000Y20610000D01*
X127640000Y20610000D02*
X127640000Y17780000D01*
X134000000Y20610000D02*
X134000000Y19510000D01*
%TO.C,Y1*%
X70780000Y48490000D02*
X70780000Y43390000D01*
X70780000Y43390000D02*
X83380000Y43390000D01*
X83380000Y48490000D02*
X70780000Y48490000D01*
%TO.C,TP5*%
X7560000Y77690000D02*
G75*
G03*
X7560000Y77690000I-1200000J0D01*
G01*
%TO.C,U5*%
X106700000Y60000000D02*
X114300000Y60000000D01*
X114300000Y60000000D02*
X114300000Y57400000D01*
X114300000Y57400000D02*
X106700000Y57400000D01*
X106700000Y57400000D02*
X106700000Y60000000D01*
X99000000Y80300000D02*
X122000000Y80300000D01*
X122000000Y80300000D02*
X122000000Y57300000D01*
X122000000Y57300000D02*
X99000000Y57300000D01*
X99000000Y57300000D02*
X99000000Y80300000D01*
X94250000Y80800000D02*
X126750000Y80800000D01*
X126750000Y80800000D02*
X126750000Y56800000D01*
X126750000Y56800000D02*
X94250000Y56800000D01*
X94250000Y56800000D02*
X94250000Y80800000D01*
X122000000Y68800000D02*
G75*
G03*
X122000000Y68800000I-11500000J0D01*
G01*
%TO.C,TP2*%
X119320000Y28160000D02*
G75*
G03*
X119320000Y28160000I-1200000J0D01*
G01*
%TO.C,U1*%
X97850000Y31850000D02*
X97850000Y33500000D01*
X97850000Y35500000D02*
X97850000Y37150000D01*
X62170000Y31850000D02*
X97850000Y31850000D01*
X97850000Y37150000D02*
X62170000Y37150000D01*
X62170000Y37150000D02*
X62170000Y31850000D01*
X97850000Y35500000D02*
G75*
G03*
X97850000Y33500000I0J-1000000D01*
G01*
%TO.C,J6*%
X90115000Y14175000D02*
X90115000Y9035000D01*
X95315000Y16775000D02*
X95315000Y9035000D01*
X90115000Y16775000D02*
X91445000Y16775000D01*
X90115000Y14175000D02*
X92715000Y14175000D01*
X92715000Y14175000D02*
X92715000Y16775000D01*
X92715000Y16775000D02*
X95315000Y16775000D01*
X90115000Y15445000D02*
X90115000Y16775000D01*
X90115000Y9035000D02*
X95315000Y9035000D01*
%TO.C,U3*%
X74890000Y11930000D02*
X74890000Y10280000D01*
X85170000Y10280000D02*
X85170000Y15580000D01*
X74890000Y10280000D02*
X85170000Y10280000D01*
X74890000Y15580000D02*
X74890000Y13930000D01*
X85170000Y15580000D02*
X74890000Y15580000D01*
X74890000Y11930000D02*
G75*
G03*
X74890000Y13930000I0J1000000D01*
G01*
%TO.C,J3*%
X48265000Y6510000D02*
X38045000Y6510000D01*
X50865000Y9170000D02*
X50865000Y7840000D01*
X48265000Y9170000D02*
X38045000Y9170000D01*
X48265000Y9170000D02*
X48265000Y6510000D01*
X49535000Y9170000D02*
X50865000Y9170000D01*
X38045000Y9170000D02*
X38045000Y6510000D01*
%TO.C,D1*%
X92305000Y22770000D02*
X92305000Y20850000D01*
X94990000Y22770000D02*
X92305000Y22770000D01*
X92305000Y20850000D02*
X94990000Y20850000D01*
%TO.C,J5*%
X60970000Y9170000D02*
X60970000Y6510000D01*
X55830000Y9170000D02*
X55830000Y6510000D01*
X60970000Y9170000D02*
X55830000Y9170000D01*
X60970000Y6510000D02*
X55830000Y6510000D01*
X62240000Y9170000D02*
X63570000Y9170000D01*
X63570000Y9170000D02*
X63570000Y7840000D01*
%TO.C,TP9*%
X8830000Y24350000D02*
G75*
G03*
X8830000Y24350000I-1200000J0D01*
G01*
%TO.C,RV1*%
X110320000Y43595000D02*
X100550000Y43595000D01*
X110320000Y43595000D02*
X110320000Y53365000D01*
X110320000Y53365000D02*
X100550000Y53365000D01*
X100550000Y43595000D02*
X100550000Y53365000D01*
%TO.C,Y2*%
X78030000Y4350000D02*
X76930000Y4350000D01*
X79430000Y4400000D02*
X79430000Y6200000D01*
X78030000Y6250000D02*
X76930000Y6250000D01*
%TO.C,U4*%
X18995000Y22090000D02*
X18995000Y20440000D01*
X49595000Y20440000D02*
X49595000Y25740000D01*
X49595000Y25740000D02*
X18995000Y25740000D01*
X18995000Y25740000D02*
X18995000Y24090000D01*
X18995000Y20440000D02*
X49595000Y20440000D01*
X18995000Y22090000D02*
G75*
G03*
X18995000Y24090000I0J1000000D01*
G01*
%TO.C,TP3*%
X83760000Y4030000D02*
G75*
G03*
X83760000Y4030000I-1200000J0D01*
G01*
%TO.C,TP6*%
X133290000Y63720000D02*
G75*
G03*
X133290000Y63720000I-1200000J0D01*
G01*
%TO.C,TP7*%
X68520000Y7840000D02*
G75*
G03*
X68520000Y7840000I-1200000J0D01*
G01*
%TO.C,DS1*%
X10920000Y86797500D02*
X10920000Y50517500D01*
X87060000Y81157500D02*
X87060000Y56157500D01*
X19260000Y76157500D02*
X82760000Y76157500D01*
X17560000Y87157500D02*
X20560000Y87157500D01*
X14060000Y81157500D02*
X87060000Y81157500D01*
X91200000Y86797500D02*
X11720000Y86797500D01*
X82760660Y61157500D02*
X19260000Y61157500D01*
X87060000Y56157500D02*
X14060000Y56157500D01*
X18760280Y61658180D02*
X18760280Y75657500D01*
X91200000Y50517500D02*
X91200000Y86797500D01*
X10920000Y50517500D02*
X91200000Y50517500D01*
X14060000Y56157500D02*
X14060000Y81157500D01*
X83260000Y75657500D02*
X83260000Y61657500D01*
X10930000Y86797500D02*
X11720000Y86797500D01*
X83260000Y75657500D02*
G75*
G03*
X82760000Y76157500I-500000J0D01*
G01*
X19260660Y76159040D02*
G75*
G03*
X18760280Y75658660I0J-500380D01*
G01*
X18760280Y61658180D02*
G75*
G03*
X19260660Y61157800I500380J0D01*
G01*
X82760660Y61157860D02*
G75*
G03*
X83261040Y61658180I40J500340D01*
G01*
%TO.C,TP1*%
X64710000Y45940000D02*
G75*
G03*
X64710000Y45940000I-1200000J0D01*
G01*
%TD*%
%LPC*%
D13*
%TO.C,RV2*%
X59700000Y21810000D03*
X57160000Y24350000D03*
X54620000Y21810000D03*
%TD*%
D14*
%TO.C,DS2*%
X26680000Y30700000D03*
D15*
X29220000Y30700000D03*
X31760000Y30700000D03*
X34300000Y30700000D03*
X36840000Y30700000D03*
X39380000Y30700000D03*
X41920000Y30700000D03*
X41920000Y45940000D03*
X39380000Y45940000D03*
X36840000Y45940000D03*
X34300000Y45940000D03*
X31760000Y45940000D03*
X29220000Y45940000D03*
X26680000Y45940000D03*
%TD*%
D16*
%TO.C,H4*%
X135000000Y5000000D03*
%TD*%
D17*
%TO.C,R3*%
X95260000Y41280000D03*
X95260000Y42980000D03*
%TD*%
%TO.C,C5*%
X68590000Y45090000D03*
X68590000Y46790000D03*
%TD*%
D18*
%TO.C,R8*%
X95680000Y48480000D03*
X97380000Y48480000D03*
%TD*%
%TO.C,R9*%
X31340000Y7840000D03*
X29640000Y7840000D03*
%TD*%
D19*
%TO.C,J1*%
X110500000Y39590000D03*
D20*
X110500000Y37050000D03*
X110500000Y34510000D03*
X110500000Y31970000D03*
X110500000Y29430000D03*
X110500000Y26890000D03*
%TD*%
D18*
%TO.C,R2*%
X102880000Y30700000D03*
X104580000Y30700000D03*
%TD*%
%TO.C,C9*%
X13130000Y20540000D03*
X14830000Y20540000D03*
%TD*%
%TO.C,C10*%
X13130000Y16730000D03*
X14830000Y16730000D03*
%TD*%
D21*
%TO.C,SW1*%
X100630000Y12730000D03*
X100630000Y20730000D03*
X105130000Y12730000D03*
X105130000Y20730000D03*
%TD*%
D18*
%TO.C,C2*%
X82140000Y42130000D03*
X80440000Y42130000D03*
%TD*%
D17*
%TO.C,C1*%
X80020000Y27740000D03*
X80020000Y26040000D03*
%TD*%
D22*
%TO.C,TP8*%
X47000000Y15460000D03*
%TD*%
D23*
%TO.C,U2*%
X128540000Y18880000D03*
D24*
X130820000Y25180000D03*
D23*
X133100000Y18880000D03*
%TD*%
D25*
%TO.C,Y1*%
X73230000Y45940000D03*
X81730000Y45940000D03*
%TD*%
D22*
%TO.C,TP5*%
X6360000Y77690000D03*
%TD*%
D18*
%TO.C,R6*%
X86370000Y21810000D03*
X84670000Y21810000D03*
%TD*%
%TO.C,R5*%
X79170000Y21810000D03*
X80870000Y21810000D03*
%TD*%
D22*
%TO.C,U5*%
X124950000Y68800000D03*
X96050000Y68800000D03*
D19*
X113040000Y58750000D03*
D20*
X110500000Y58750000D03*
X107960000Y58750000D03*
%TD*%
D22*
%TO.C,TP2*%
X118120000Y28160000D03*
%TD*%
D26*
%TO.C,U1*%
X96520000Y38310000D03*
D27*
X93980000Y38310000D03*
X91440000Y38310000D03*
X88900000Y38310000D03*
X86360000Y38310000D03*
X83820000Y38310000D03*
X81280000Y38310000D03*
X78740000Y38310000D03*
X76200000Y38310000D03*
X73660000Y38310000D03*
X71120000Y38310000D03*
X68580000Y38310000D03*
X66040000Y38310000D03*
X63500000Y38310000D03*
X63500000Y30690000D03*
X66040000Y30690000D03*
X68580000Y30690000D03*
X71120000Y30690000D03*
X73660000Y30690000D03*
X76200000Y30690000D03*
X78740000Y30690000D03*
X81280000Y30690000D03*
X83820000Y30690000D03*
X86360000Y30690000D03*
X88900000Y30690000D03*
X91440000Y30690000D03*
X93980000Y30690000D03*
X96520000Y30690000D03*
%TD*%
D19*
%TO.C,J6*%
X91445000Y15445000D03*
D20*
X93985000Y15445000D03*
X91445000Y12905000D03*
X93985000Y12905000D03*
X91445000Y10365000D03*
X93985000Y10365000D03*
%TD*%
D26*
%TO.C,U3*%
X76220000Y9120000D03*
D27*
X78760000Y9120000D03*
X81300000Y9120000D03*
X83840000Y9120000D03*
X83840000Y16740000D03*
X81300000Y16740000D03*
X78760000Y16740000D03*
X76220000Y16740000D03*
%TD*%
D19*
%TO.C,J3*%
X49535000Y7840000D03*
D20*
X46995000Y7840000D03*
X44455000Y7840000D03*
X41915000Y7840000D03*
X39375000Y7840000D03*
%TD*%
D28*
%TO.C,D1*%
X93052500Y21810000D03*
X94927500Y21810000D03*
%TD*%
D19*
%TO.C,J5*%
X62240000Y7840000D03*
D20*
X59700000Y7840000D03*
X57160000Y7840000D03*
%TD*%
D18*
%TO.C,R7*%
X13130000Y24350000D03*
X14830000Y24350000D03*
%TD*%
D17*
%TO.C,C4*%
X86370000Y45090000D03*
X86370000Y46790000D03*
%TD*%
D16*
%TO.C,H2*%
X135000000Y85000000D03*
%TD*%
D22*
%TO.C,TP9*%
X7630000Y24350000D03*
%TD*%
D13*
%TO.C,RV1*%
X105420000Y51020000D03*
X102880000Y48480000D03*
X105420000Y45940000D03*
%TD*%
D17*
%TO.C,C11*%
X26680000Y7420000D03*
X26680000Y5720000D03*
%TD*%
D16*
%TO.C,H3*%
X5000000Y5000000D03*
%TD*%
D29*
%TO.C,Y2*%
X78730000Y5300000D03*
X76230000Y5300000D03*
%TD*%
D17*
%TO.C,R4*%
X92720000Y41280000D03*
X92720000Y42980000D03*
%TD*%
D16*
%TO.C,H1*%
X5000000Y85000000D03*
%TD*%
D17*
%TO.C,R10*%
X34300000Y9960000D03*
X34300000Y8260000D03*
%TD*%
D18*
%TO.C,C3*%
X104570000Y25620000D03*
X106270000Y25620000D03*
%TD*%
D26*
%TO.C,U4*%
X20325000Y19280000D03*
D27*
X22865000Y19280000D03*
X25405000Y19280000D03*
X27945000Y19280000D03*
X30485000Y19280000D03*
X33025000Y19280000D03*
X35565000Y19280000D03*
X38105000Y19280000D03*
X40645000Y19280000D03*
X43185000Y19280000D03*
X45725000Y19280000D03*
X48265000Y19280000D03*
X48265000Y26900000D03*
X45725000Y26900000D03*
X43185000Y26900000D03*
X40645000Y26900000D03*
X38105000Y26900000D03*
X35565000Y26900000D03*
X33025000Y26900000D03*
X30485000Y26900000D03*
X27945000Y26900000D03*
X25405000Y26900000D03*
X22865000Y26900000D03*
X20325000Y26900000D03*
%TD*%
D22*
%TO.C,TP3*%
X82560000Y4030000D03*
%TD*%
D18*
%TO.C,C6*%
X127860000Y15460000D03*
X126160000Y15460000D03*
%TD*%
D22*
%TO.C,TP6*%
X132090000Y63720000D03*
%TD*%
%TO.C,TP7*%
X67320000Y7840000D03*
%TD*%
D18*
%TO.C,C8*%
X73670000Y21810000D03*
X75370000Y21810000D03*
%TD*%
%TO.C,C7*%
X133780000Y15460000D03*
X135480000Y15460000D03*
%TD*%
%TO.C,R11*%
X97550000Y25620000D03*
X99250000Y25620000D03*
%TD*%
D30*
%TO.C,DS1*%
X88560000Y84157500D03*
X88559480Y53156800D03*
X13560900Y53156800D03*
X13560900Y84157500D03*
D31*
X19060000Y84157500D03*
D32*
X21600000Y84157500D03*
X24140000Y84157500D03*
X26680000Y84157500D03*
X29220000Y84157500D03*
X31760000Y84157500D03*
X34300000Y84157500D03*
X36840000Y84157500D03*
X39380000Y84157500D03*
X41920000Y84157500D03*
X44460000Y84157500D03*
X47000000Y84157500D03*
X49540000Y84157500D03*
X52080000Y84157500D03*
X54620000Y84157500D03*
X57160000Y84157500D03*
%TD*%
D22*
%TO.C,TP1*%
X63510000Y45940000D03*
%TD*%
D33*
%TO.C,J2*%
X113350000Y15460000D03*
D34*
X115650000Y20760000D03*
X119350000Y18260000D03*
%TD*%
D35*
%TO.C,BT1*%
X125739984Y33056314D03*
D30*
X125739984Y53546314D03*
%TD*%
M02*
